<?xml version="1.0" encoding="UTF-8" standalone="no"?>
<svg
   xmlns:dc="http://purl.org/dc/elements/1.1/"
   xmlns:cc="http://creativecommons.org/ns#"
   xmlns:rdf="http://www.w3.org/1999/02/22-rdf-syntax-ns#"
   xmlns:svg="http://www.w3.org/2000/svg"
   xmlns="http://www.w3.org/2000/svg"
   xmlns:sodipodi="http://sodipodi.sourceforge.net/DTD/sodipodi-0.dtd"
   xmlns:inkscape="http://www.inkscape.org/namespaces/inkscape"
   viewBox="0 -256 1850 1850"
   id="svg2989"
   version="1.1"
   inkscape:version="0.48.4 r9939"
   width="100%"
   height="100%"
   sodipodi:docname="Align_justify_font_awesome_invert.svg">
  <metadata
     id="metadata2999">
    <rdf:RDF>
      <cc:Work
         rdf:about="">
        <dc:format>image/svg+xml</dc:format>
        <dc:type
           rdf:resource="http://purl.org/dc/dcmitype/StillImage" />
        <dc:title />
      </cc:Work>
    </rdf:RDF>
  </metadata>
  <defs
     id="defs2997" />
  <sodipodi:namedview
     pagecolor="#ffffff"
     bordercolor="#666666"
     borderopacity="1"
     objecttolerance="10"
     gridtolerance="10"
     guidetolerance="10"
     inkscape:pageopacity="0"
     inkscape:pageshadow="2"
     inkscape:window-width="1045"
     inkscape:window-height="679"
     id="namedview2995"
     showgrid="false"
     inkscape:zoom="0.11313708"
     inkscape:cx="1642.9613"
     inkscape:cy="1236.5571"
     inkscape:window-x="297"
     inkscape:window-y="70"
     inkscape:window-maximized="0"
     inkscape:current-layer="g2991" />
  <g
     transform="matrix(1,0,0,-1,37.966102,1396.5763)"
     id="g2991">
    <path
       style="fill:#1a1a1a;fill-opacity:1;stroke:none;stroke-width:75;stroke-linejoin:bevel;stroke-miterlimit:4;stroke-opacity:1;stroke-dasharray:none;stroke-dashoffset:0"
       d="M 57.71875 -7.75 C 25.742374 -7.75 0 19.951357 0 54.375 L 0 1814.7188 C 0 1849.1424 25.742374 1876.8438 57.71875 1876.8438 L 1810.7812 1876.8438 C 1842.7576 1876.8438 1868.5 1849.1424 1868.5 1814.7188 L 1868.5 54.375 C 1868.5 19.951357 1842.7576 -7.75 1810.7812 -7.75 L 57.71875 -7.75 z M 95.96875 244.5625 L 1759.9688 244.5625 C 1777.3021 244.5625 1792.3021 250.89583 1804.9688 263.5625 C 1817.6354 276.22917 1823.9688 291.22917 1823.9688 308.5625 L 1823.9688 436.5625 C 1823.9688 453.89583 1817.6354 468.89583 1804.9688 481.5625 C 1792.3021 494.22917 1777.3021 500.5625 1759.9688 500.5625 L 95.96875 500.5625 C 78.635417 500.5625 63.635417 494.22917 50.96875 481.5625 C 38.302083 468.89583 31.96875 453.89583 31.96875 436.5625 L 31.96875 308.5625 C 31.96875 291.22917 38.302083 276.22917 50.96875 263.5625 C 63.635417 250.89583 78.635417 244.5625 95.96875 244.5625 z M 95.96875 628.5625 L 1759.9688 628.5625 C 1777.3021 628.5625 1792.3021 634.89583 1804.9688 647.5625 C 1817.6354 660.22917 1823.9688 675.22917 1823.9688 692.5625 L 1823.9688 820.5625 C 1823.9688 837.89583 1817.6354 852.89583 1804.9688 865.5625 C 1792.3021 878.22917 1777.3021 884.5625 1759.9688 884.5625 L 95.96875 884.5625 C 78.635417 884.5625 63.635417 878.22917 50.96875 865.5625 C 38.302083 852.89583 31.96875 837.89583 31.96875 820.5625 L 31.96875 692.5625 C 31.96875 675.22917 38.302083 660.22917 50.96875 647.5625 C 63.635417 634.89583 78.635417 628.5625 95.96875 628.5625 z M 95.96875 1012.5625 L 1759.9688 1012.5625 C 1777.3021 1012.5625 1792.3021 1018.8958 1804.9688 1031.5625 C 1817.6354 1044.2292 1823.9688 1059.2292 1823.9688 1076.5625 L 1823.9688 1204.5625 C 1823.9688 1221.8958 1817.6354 1236.8958 1804.9688 1249.5625 C 1792.3021 1262.2292 1777.3021 1268.5625 1759.9688 1268.5625 L 95.96875 1268.5625 C 78.635417 1268.5625 63.635417 1262.2292 50.96875 1249.5625 C 38.302083 1236.8958 31.96875 1221.8958 31.96875 1204.5625 L 31.96875 1076.5625 C 31.96875 1059.2292 38.302083 1044.2292 50.96875 1031.5625 C 63.635417 1018.8958 78.635417 1012.5625 95.96875 1012.5625 z M 95.96875 1396.5625 L 1759.9688 1396.5625 C 1777.3021 1396.5625 1792.3021 1402.8958 1804.9688 1415.5625 C 1817.6354 1428.2292 1823.9688 1443.2292 1823.9688 1460.5625 L 1823.9688 1588.5625 C 1823.9688 1605.8958 1817.6354 1620.8958 1804.9688 1633.5625 C 1792.3021 1646.2292 1777.3021 1652.5625 1759.9688 1652.5625 L 95.96875 1652.5625 C 78.635417 1652.5625 63.635417 1646.2292 50.96875 1633.5625 C 38.302083 1620.8958 31.96875 1605.8958 31.96875 1588.5625 L 31.96875 1460.5625 C 31.96875 1443.2292 38.302083 1428.2292 50.96875 1415.5625 C 63.635417 1402.8958 78.635417 1396.5625 95.96875 1396.5625 z "
       transform="matrix(1,0,0,-1,-37.966102,1652.5763)"
       id="rect3780" />
  </g>
</svg>
