<?xml version="1.0" encoding="UTF-8" standalone="no"?>
<svg
   xmlns:dc="http://purl.org/dc/elements/1.1/"
   xmlns:cc="http://creativecommons.org/ns#"
   xmlns:rdf="http://www.w3.org/1999/02/22-rdf-syntax-ns#"
   xmlns:svg="http://www.w3.org/2000/svg"
   xmlns="http://www.w3.org/2000/svg"
   xmlns:sodipodi="http://sodipodi.sourceforge.net/DTD/sodipodi-0.dtd"
   xmlns:inkscape="http://www.inkscape.org/namespaces/inkscape"
   viewBox="0 -256 1950 1950"
   id="svg3001"
   version="1.1"
   inkscape:version="0.48.3.1 r9886"
   width="100%"
   height="100%"
   sodipodi:docname="bar_chart_font_awesome.svg">
  <metadata
     id="metadata3011">
    <rdf:RDF>
      <cc:Work
         rdf:about="">
        <dc:format>image/svg+xml</dc:format>
        <dc:type
           rdf:resource="http://purl.org/dc/dcmitype/StillImage" />
      </cc:Work>
    </rdf:RDF>
  </metadata>
  <defs
     id="defs3009" />
  <sodipodi:namedview
     pagecolor="#ffffff"
     bordercolor="#666666"
     borderopacity="1"
     objecttolerance="10"
     gridtolerance="10"
     guidetolerance="10"
     inkscape:pageopacity="0"
     inkscape:pageshadow="2"
     inkscape:window-width="640"
     inkscape:window-height="480"
     id="namedview3007"
     showgrid="false"
     inkscape:zoom="0.13169643"
     inkscape:cx="960"
     inkscape:cy="896"
     inkscape:window-x="0"
     inkscape:window-y="25"
     inkscape:window-maximized="0"
     inkscape:current-layer="g3003" />
  <g
     transform="matrix(1,0,0,-1,0,1694)"
     id="g3003">
    <path
       d="m 527.18644,800.54237 v -384 h -256 v 384 h 256 z m 384,512.00003 V 416.54237 h -256 v 896.00003 h 256 z m 383.99996,-256 V 416.54237 h -256 v 640.00003 h 256 z m 384,384 V 416.54237 h -256 V 1440.5424 h 256 z m 128,-1120.00003 V 1536.5424 q 0,13 -9.5,22.5 -9.5,9.5 -22.5,9.5 H 175.18644 q -13,0 -22.5,-9.5 -9.5,-9.5 -9.5,-22.5 V 320.54237 q 0,-13 9.5,-22.5 9.5,-9.5 22.5,-9.5 H 1775.1864 q 13,0 22.5,9.5 9.5,9.5 9.5,22.5 z m 128,1216.00003 V 320.54237 q 0,-66 -47,-113 -47,-47 -113,-47 H 175.18644 q -66,0 -112.999999,47 -47,47 -47,113 V 1536.5424 q 0,66 47,113 46.999999,47 112.999999,47 H 1775.1864 q 66,0 113,-47 47,-47 47,-113 z"
       id="path3005"
       inkscape:connector-curvature="0"
       style="fill:currentColor" />
  </g>
</svg>
