<?xml version="1.0" encoding="UTF-8" standalone="no"?>
<svg
   xmlns:dc="http://purl.org/dc/elements/1.1/"
   xmlns:cc="http://creativecommons.org/ns#"
   xmlns:rdf="http://www.w3.org/1999/02/22-rdf-syntax-ns#"
   xmlns:svg="http://www.w3.org/2000/svg"
   xmlns="http://www.w3.org/2000/svg"
   xmlns:sodipodi="http://sodipodi.sourceforge.net/DTD/sodipodi-0.dtd"
   xmlns:inkscape="http://www.inkscape.org/namespaces/inkscape"
   viewBox="0 -256 1950 1950"
   id="svg3001"
   version="1.1"
   inkscape:version="0.48.4 r9939"
   width="100%"
   height="100%"
   sodipodi:docname="Bar_chart_font_awesome_invert.svg">
  <metadata
     id="metadata3011">
    <rdf:RDF>
      <cc:Work
         rdf:about="">
        <dc:format>image/svg+xml</dc:format>
        <dc:type
           rdf:resource="http://purl.org/dc/dcmitype/StillImage" />
      </cc:Work>
    </rdf:RDF>
  </metadata>
  <defs
     id="defs3009" />
  <sodipodi:namedview
     pagecolor="#ffffff"
     bordercolor="#666666"
     borderopacity="1"
     objecttolerance="10"
     gridtolerance="10"
     guidetolerance="10"
     inkscape:pageopacity="0"
     inkscape:pageshadow="2"
     inkscape:window-width="1139"
     inkscape:window-height="686"
     id="namedview3007"
     showgrid="false"
     inkscape:zoom="0.13169643"
     inkscape:cx="-311.86439"
     inkscape:cy="896"
     inkscape:window-x="0"
     inkscape:window-y="25"
     inkscape:window-maximized="0"
     inkscape:current-layer="g3003" />
  <g
     transform="matrix(1,0,0,-1,0,1694)"
     id="g3003">
    <path
       style="fill:#000000;fill-opacity:1;stroke:none"
       d="M 66.09375 13.71875 C 37.892364 13.71875 15.1875 46.369995 15.1875 86.90625 L 15.1875 413.46875 C 15.1875 369.46875 30.854167 331.80208 62.1875 300.46875 C 93.520833 269.13542 131.1875 253.46875 175.1875 253.46875 L 1775.1875 253.46875 C 1819.1875 253.46875 1856.8542 269.13542 1888.1875 300.46875 C 1919.5208 331.80208 1935.1875 369.46875 1935.1875 413.46875 L 1935.1875 1629.4688 C 1935.1875 1673.4688 1919.5208 1711.1354 1888.1875 1742.4688 C 1856.8542 1773.8021 1819.1875 1789.4687 1775.1875 1789.4688 L 175.1875 1789.4688 C 131.1875 1789.4688 93.520833 1773.8021 62.1875 1742.4688 C 30.854167 1711.1354 15.1875 1673.4688 15.1875 1629.4688 L 15.1875 1854.0625 C 15.1875 1894.5988 37.892364 1927.2188 66.09375 1927.2188 L 1892.9688 1927.2188 C 1921.1701 1927.2188 1943.875 1894.5988 1943.875 1854.0625 L 1943.875 86.90625 C 1943.875 46.369995 1921.1701 13.71875 1892.9688 13.71875 L 66.09375 13.71875 z M 175.1875 381.46875 C 166.52083 381.46875 159.02083 384.63542 152.6875 390.96875 C 146.35417 397.30208 143.1875 404.80208 143.1875 413.46875 L 143.1875 1629.4688 C 143.1875 1638.1354 146.35417 1645.6354 152.6875 1651.9688 C 159.02083 1658.3021 166.52083 1661.4687 175.1875 1661.4688 L 1775.1875 1661.4688 C 1783.8542 1661.4688 1791.3542 1658.3021 1797.6875 1651.9688 C 1804.0208 1645.6354 1807.1875 1638.1354 1807.1875 1629.4688 L 1807.1875 413.46875 C 1807.1875 404.80208 1804.0208 397.30208 1797.6875 390.96875 C 1791.3542 384.63542 1783.8542 381.46875 1775.1875 381.46875 L 175.1875 381.46875 z M 1423.1875 509.46875 L 1679.1875 509.46875 L 1679.1875 1533.4688 L 1423.1875 1533.4688 L 1423.1875 509.46875 z M 655.1875 637.46875 L 911.1875 637.46875 L 911.1875 1533.4688 L 655.1875 1533.4688 L 655.1875 637.46875 z M 1039.1875 893.46875 L 1295.1875 893.46875 L 1295.1875 1533.4688 L 1039.1875 1533.4688 L 1039.1875 893.46875 z M 271.1875 1149.4688 L 527.1875 1149.4688 L 527.1875 1533.4688 L 271.1875 1533.4688 L 271.1875 1149.4688 z "
       transform="matrix(1,0,0,-1,0,1950)"
       id="rect3751" />
  </g>
</svg>
