<?xml version="1.0" encoding="UTF-8" standalone="no"?>
<svg
   xmlns:dc="http://purl.org/dc/elements/1.1/"
   xmlns:cc="http://creativecommons.org/ns#"
   xmlns:rdf="http://www.w3.org/1999/02/22-rdf-syntax-ns#"
   xmlns:svg="http://www.w3.org/2000/svg"
   xmlns="http://www.w3.org/2000/svg"
   xmlns:sodipodi="http://sodipodi.sourceforge.net/DTD/sodipodi-0.dtd"
   xmlns:inkscape="http://www.inkscape.org/namespaces/inkscape"
   viewBox="0 -256 1950 1950"
   id="svg3037"
   version="1.1"
   inkscape:version="0.48.3.1 r9886"
   width="100%"
   height="100%"
   sodipodi:docname="cogs_font_awesome.svg">
  <metadata
     id="metadata3047">
    <rdf:RDF>
      <cc:Work
         rdf:about="">
        <dc:format>image/svg+xml</dc:format>
        <dc:type
           rdf:resource="http://purl.org/dc/dcmitype/StillImage" />
      </cc:Work>
    </rdf:RDF>
  </metadata>
  <defs
     id="defs3045" />
  <sodipodi:namedview
     pagecolor="#ffffff"
     bordercolor="#666666"
     borderopacity="1"
     objecttolerance="10"
     gridtolerance="10"
     guidetolerance="10"
     inkscape:pageopacity="0"
     inkscape:pageshadow="2"
     inkscape:window-width="640"
     inkscape:window-height="480"
     id="namedview3043"
     showgrid="false"
     inkscape:zoom="0.13169643"
     inkscape:cx="960"
     inkscape:cy="896"
     inkscape:window-x="0"
     inkscape:window-y="25"
     inkscape:window-maximized="0"
     inkscape:current-layer="svg3037" />
  <g
     transform="matrix(1,0,0,-1,15.186441,1359.8983)"
     id="g3039">
    <path
       d="m 896,640 q 0,106 -75,181 -75,75 -181,75 -106,0 -181,-75 -75,-75 -75,-181 0,-106 75,-181 75,-75 181,-75 106,0 181,75 75,75 75,181 z m 768,-512 q 0,52 -38,90 -38,38 -90,38 -52,0 -90,-38 -38,-38 -38,-90 0,-53 37.5,-90.5 Q 1483,0 1536,0 1589,0 1626.5,37.5 1664,75 1664,128 z m 0,1024 q 0,52 -38,90 -38,38 -90,38 -52,0 -90,-38 -38,-38 -38,-90 0,-53 37.5,-90.5 37.5,-37.5 90.5,-37.5 53,0 90.5,37.5 37.5,37.5 37.5,90.5 z M 1280,731 V 546 q 0,-10 -7,-19.5 -7,-9.5 -16,-10.5 l -155,-24 q -11,-35 -32,-76 34,-48 90,-115 7,-10 7,-20 0,-12 -7,-19 -23,-30 -82.5,-89.5 Q 1018,113 999,113 q -11,0 -21,7 L 863,210 Q 826,191 786,179 775,71 763,24 756,0 733,0 H 547 Q 536,0 527,7.5 518,15 517,25 l -23,153 q -34,10 -75,31 L 301,120 q -7,-7 -20,-7 -11,0 -21,8 -144,133 -144,160 0,9 7,19 10,14 41,53 31,39 47,61 -23,44 -35,82 L 24,520 Q 14,521 7,529.5 0,538 0,549 v 185 q 0,10 7,19.5 7,9.5 16,10.5 l 155,24 q 11,35 32,76 -34,48 -90,115 -7,11 -7,20 0,12 7,20 22,30 82,89 60,59 79,59 11,0 21,-7 l 115,-90 q 34,18 77,32 11,108 23,154 7,24 30,24 h 186 q 11,0 20,-7.5 9,-7.5 10,-17.5 l 23,-153 q 34,-10 75,-31 l 118,89 q 8,7 20,7 11,0 21,-8 144,-133 144,-160 0,-9 -7,-19 -12,-16 -42,-54 -30,-38 -45,-60 23,-48 34,-82 l 152,-23 q 10,-2 17,-10.5 7,-8.5 7,-19.5 z M 1920,198 V 58 q 0,-16 -149,-31 -12,-27 -30,-52 51,-113 51,-138 0,-4 -4,-7 -122,-71 -124,-71 -8,0 -46,47 -38,47 -52,68 -20,-2 -30,-2 -10,0 -30,2 -14,-21 -52,-68 -38,-47 -46,-47 -2,0 -124,71 -4,3 -4,7 0,25 51,138 -18,25 -30,52 -149,15 -149,31 v 140 q 0,16 149,31 13,29 30,52 -51,113 -51,138 0,4 4,7 4,2 35,20 31,18 59,34 28,16 30,16 8,0 46,-46.5 38,-46.5 52,-67.5 20,2 30,2 10,0 30,-2 51,71 92,112 l 6,2 q 4,0 124,-70 4,-3 4,-7 0,-25 -51,-138 17,-23 30,-52 149,-15 149,-31 z m 0,1024 v -140 q 0,-16 -149,-31 -12,-27 -30,-52 51,-113 51,-138 0,-4 -4,-7 -122,-71 -124,-71 -8,0 -46,47 -38,47 -52,68 -20,-2 -30,-2 -10,0 -30,2 -14,-21 -52,-68 -38,-47 -46,-47 -2,0 -124,71 -4,3 -4,7 0,25 51,138 -18,25 -30,52 -149,15 -149,31 v 140 q 0,16 149,31 13,29 30,52 -51,113 -51,138 0,4 4,7 4,2 35,20 31,18 59,34 28,16 30,16 8,0 46,-46.5 38,-46.5 52,-67.5 20,2 30,2 10,0 30,-2 51,71 92,112 l 6,2 q 4,0 124,-70 4,-3 4,-7 0,-25 -51,-138 17,-23 30,-52 149,-15 149,-31 z"
       id="path3041"
       inkscape:connector-curvature="0"
       style="fill:currentColor" />
  </g>
</svg>
