<?xml version="1.0" encoding="UTF-8" standalone="no"?>
<!-- Created with Inkscape (http://www.inkscape.org/) -->

<svg
   xmlns:dc="http://purl.org/dc/elements/1.1/"
   xmlns:cc="http://creativecommons.org/ns#"
   xmlns:rdf="http://www.w3.org/1999/02/22-rdf-syntax-ns#"
   xmlns:svg="http://www.w3.org/2000/svg"
   xmlns="http://www.w3.org/2000/svg"
   xmlns:sodipodi="http://sodipodi.sourceforge.net/DTD/sodipodi-0.dtd"
   xmlns:inkscape="http://www.inkscape.org/namespaces/inkscape"
   width="52.931995"
   height="52.931995"
   id="svg2"
   version="1.1"
   inkscape:version="0.48.4 r9939"
   sodipodi:docname="crop_font_grey.svg">
  <defs
     id="defs4" />
  <sodipodi:namedview
     id="base"
     pagecolor="#ffffff"
     bordercolor="#666666"
     borderopacity="1.0"
     inkscape:pageopacity="0.0"
     inkscape:pageshadow="2"
     inkscape:zoom="2.8284271"
     inkscape:cx="71.965626"
     inkscape:cy="21.426552"
     inkscape:document-units="px"
     inkscape:current-layer="layer1"
     showgrid="false"
     fit-margin-top="0"
     fit-margin-left="0"
     fit-margin-right="0"
     fit-margin-bottom="0"
     inkscape:window-width="1093"
     inkscape:window-height="777"
     inkscape:window-x="297"
     inkscape:window-y="1094"
     inkscape:window-maximized="0" />
  <metadata
     id="metadata7">
    <rdf:RDF>
      <cc:Work
         rdf:about="">
        <dc:format>image/svg+xml</dc:format>
        <dc:type
           rdf:resource="http://purl.org/dc/dcmitype/StillImage" />
        <dc:title></dc:title>
      </cc:Work>
    </rdf:RDF>
  </metadata>
  <g
     inkscape:label="Layer 1"
     inkscape:groupmode="layer"
     id="layer1"
     transform="translate(-180.36273,-342.83102)">
    <path
       style="fill:#000000;stroke:none"
       d="M 0 0 L 0 52.9375 L 52.9375 52.9375 L 52.9375 0 L 0 0 z M 11.96875 4.625 L 17.09375 4.625 C 17.34374 4.62503 17.55803 4.68308 17.71875 4.84375 C 17.87945 5.0045 17.96874 5.21879 17.96875 5.46875 L 17.96875 11.46875 L 40.75 11.46875 L 47.34375 4.84375 C 47.52228 4.68307 47.73657 4.62503 47.96875 4.625 C 48.20085 4.62503 48.41513 4.68308 48.59375 4.84375 C 48.75442 5.02236 48.81245 5.23664 48.8125 5.46875 C 48.81245 5.70093 48.75442 5.91521 48.59375 6.09375 L 41.96875 12.6875 L 41.96875 35.46875 L 47.96875 35.46875 C 48.21871 35.46875 48.43299 35.55808 48.59375 35.71875 C 48.75442 35.87947 48.81245 36.06251 48.8125 36.3125 L 48.8125 41.46875 C 48.81245 41.71875 48.75442 41.93304 48.59375 42.09375 C 48.43299 42.25446 48.21871 42.3125 47.96875 42.3125 L 41.96875 42.3125 L 41.96875 48.3125 C 41.96872 48.56249 41.87942 48.77678 41.71875 48.9375 C 41.558 49.09821 41.34371 49.1875 41.09375 49.1875 L 35.96875 49.1875 C 35.71872 49.1875 35.50444 49.09817 35.34375 48.9375 C 35.18301 48.77678 35.09372 48.56249 35.09375 48.3125 L 35.09375 42.3125 L 11.96875 42.3125 C 11.71875 42.3125 11.50446 42.25442 11.34375 42.09375 C 11.18303 41.93304 11.09374 41.71875 11.09375 41.46875 L 11.09375 18.3125 L 5.09375 18.3125 C 4.84375 18.31252 4.66071 18.25452 4.5 18.09375 C 4.33929 17.93306 4.25 17.71877 4.25 17.46875 L 4.25 12.3125 C 4.25 12.06253 4.33933 11.87949 4.5 11.71875 C 4.66071 11.55807 4.84375 11.46878 5.09375 11.46875 L 11.09375 11.46875 L 11.09375 5.46875 C 11.09374 5.21879 11.18308 5.0045 11.34375 4.84375 C 11.50446 4.68307 11.71875 4.62503 11.96875 4.625 z M 17.96875 18.3125 L 17.96875 34.25 L 33.90625 18.3125 L 17.96875 18.3125 z M 35.09375 19.53125 L 19.15625 35.46875 L 35.09375 35.46875 L 35.09375 19.53125 z "
       transform="translate(180.36273,342.83102)"
       id="rect2995" />
    <g
       transform="translate(50.575379,6.8786797)"
       style="font-size:48px;font-style:normal;font-variant:normal;font-weight:normal;font-stretch:normal;text-align:center;line-height:125%;letter-spacing:0px;word-spacing:0px;text-anchor:middle;fill:#000000;fill-opacity:1;stroke:none;font-family:FontAwesome;-inkscape-font-specification:FontAwesome"
       id="flowRoot2985">
      <g
         style="line-height:125%;fill:#000000;font-family:Sans"
         id="text3968" />
    </g>
    <flowRoot
       xml:space="preserve"
       id="flowRoot3036"
       style="fill:black;stroke:none;stroke-opacity:1;stroke-width:1px;stroke-linejoin:miter;stroke-linecap:butt;fill-opacity:1;font-family:Sans;font-style:normal;font-weight:normal;font-size:48px;line-height:125%;letter-spacing:0px;word-spacing:0px"><flowRegion
         id="flowRegion3038"><rect
           id="rect3040"
           width="147.07822"
           height="122.32948"
           x="-39.244427"
           y="-36.870567" /></flowRegion><flowPara
         id="flowPara3042" /></flowRoot>  </g>
</svg>
