<?xml version="1.0" encoding="UTF-8" standalone="no"?>
<!-- Created with Inkscape (http://www.inkscape.org/) -->

<svg
   xmlns:dc="http://purl.org/dc/elements/1.1/"
   xmlns:cc="http://creativecommons.org/ns#"
   xmlns:rdf="http://www.w3.org/1999/02/22-rdf-syntax-ns#"
   xmlns:svg="http://www.w3.org/2000/svg"
   xmlns="http://www.w3.org/2000/svg"
   xmlns:sodipodi="http://sodipodi.sourceforge.net/DTD/sodipodi-0.dtd"
   xmlns:inkscape="http://www.inkscape.org/namespaces/inkscape"
   width="52.931995"
   height="52.931995"
   id="svg2"
   version="1.1"
   inkscape:version="0.48.4 r9939"
   sodipodi:docname="crop_font_awesome.svg">
  <defs
     id="defs4" />
  <sodipodi:namedview
     id="base"
     pagecolor="#ffffff"
     bordercolor="#666666"
     borderopacity="1.0"
     inkscape:pageopacity="0.0"
     inkscape:pageshadow="2"
     inkscape:zoom="2.8284271"
     inkscape:cx="71.965626"
     inkscape:cy="21.426552"
     inkscape:document-units="px"
     inkscape:current-layer="text3968"
     showgrid="false"
     fit-margin-top="0"
     fit-margin-left="0"
     fit-margin-right="0"
     fit-margin-bottom="0"
     inkscape:window-width="1093"
     inkscape:window-height="777"
     inkscape:window-x="297"
     inkscape:window-y="1094"
     inkscape:window-maximized="0" />
  <metadata
     id="metadata7">
    <rdf:RDF>
      <cc:Work
         rdf:about="">
        <dc:format>image/svg+xml</dc:format>
        <dc:type
           rdf:resource="http://purl.org/dc/dcmitype/StillImage" />
        <dc:title></dc:title>
      </cc:Work>
    </rdf:RDF>
  </metadata>
  <g
     inkscape:label="Layer 1"
     inkscape:groupmode="layer"
     id="layer1"
     transform="translate(-180.36273,-342.83102)">
    <path
       style="fill:none;stroke:none"
       d="m 180.36273,342.83102 52.932,0 0,52.932 -52.932,0 z"
       id="rect2995" />
    <g
       transform="translate(50.575379,6.8786797)"
       style="font-size:48px;font-style:normal;font-variant:normal;font-weight:normal;font-stretch:normal;text-align:center;line-height:125%;letter-spacing:0px;word-spacing:0px;text-anchor:middle;fill:#000000;fill-opacity:1;stroke:none;font-family:FontAwesome;-inkscape-font-specification:FontAwesome"
       id="flowRoot2985">
      <g
         style="line-height:125%;fill:#000000;font-family:Sans"
         id="text3968">
        <path
           d="m 148.95788,371.42063 15.9375,0 0,-15.9375 -15.9375,15.9375 m -1.20536,-1.20536 15.9375,-15.9375 -15.9375,0 0,15.9375 m 30.85715,2.0625 0,5.14286 c -5e-5,0.25 -0.0804,0.45536 -0.24107,0.61607 -0.16076,0.16071 -0.36612,0.24107 -0.61608,0.24107 l -6,0 0,6 c -3e-5,0.24999 -0.0804,0.45535 -0.24107,0.61607 -0.16075,0.16071 -0.36611,0.24107 -0.61607,0.24107 l -5.14286,0 c -0.25003,0 -0.45538,-0.0804 -0.61607,-0.24107 -0.16074,-0.16072 -0.2411,-0.36608 -0.24107,-0.61607 l 0,-6 -23.14286,0 c -0.25,0 -0.45536,-0.0804 -0.61607,-0.24107 -0.16072,-0.16071 -0.24108,-0.36607 -0.24107,-0.61607 l 0,-23.14286 -6,0 c -0.25,2e-5 -0.45536,-0.0803 -0.61607,-0.24107 -0.16071,-0.16069 -0.24107,-0.36605 -0.24107,-0.61607 l 0,-5.14286 c 0,-0.24997 0.0804,-0.45533 0.24107,-0.61607 0.16071,-0.16068 0.36607,-0.24104 0.61607,-0.24107 l 6,0 0,-6 c -10e-6,-0.24996 0.0804,-0.45532 0.24107,-0.61607 0.16071,-0.16068 0.36607,-0.24104 0.61607,-0.24107 l 5.14286,0 c 0.24999,3e-5 0.45535,0.0804 0.61607,0.24107 0.1607,0.16075 0.24106,0.36611 0.24107,0.61607 l 0,6 22.79465,0 6.58928,-6.61607 c 0.17853,-0.16068 0.38389,-0.24104 0.61607,-0.24107 0.2321,3e-5 0.43746,0.0804 0.61608,0.24107 0.16067,0.17861 0.24102,0.38396 0.24107,0.61607 -5e-5,0.23218 -0.0804,0.43753 -0.24107,0.61607 l -6.61608,6.58929 0,22.79464 6,0 c 0.24996,0 0.45532,0.0804 0.61608,0.24107 0.16067,0.16072 0.24102,0.36608 0.24107,0.61607"
           style="fill:#666666"
           id="path4193" />
      </g>
    </g>
    <flowRoot
       xml:space="preserve"
       id="flowRoot3036"
       style="fill:black;stroke:none;stroke-opacity:1;stroke-width:1px;stroke-linejoin:miter;stroke-linecap:butt;fill-opacity:1;font-family:Sans;font-style:normal;font-weight:normal;font-size:48px;line-height:125%;letter-spacing:0px;word-spacing:0px"><flowRegion
         id="flowRegion3038"><rect
           id="rect3040"
           width="147.07822"
           height="122.32948"
           x="-39.244427"
           y="-36.870567" /></flowRegion><flowPara
         id="flowPara3042" /></flowRoot>  </g>
</svg>
