<?xml version="1.0" encoding="UTF-8" standalone="no"?>
<svg
   xmlns:dc="http://purl.org/dc/elements/1.1/"
   xmlns:cc="http://creativecommons.org/ns#"
   xmlns:rdf="http://www.w3.org/1999/02/22-rdf-syntax-ns#"
   xmlns:svg="http://www.w3.org/2000/svg"
   xmlns="http://www.w3.org/2000/svg"
   xmlns:sodipodi="http://sodipodi.sourceforge.net/DTD/sodipodi-0.dtd"
   xmlns:inkscape="http://www.inkscape.org/namespaces/inkscape"
   viewBox="0 -256 1792 1792"
   id="svg2989"
   version="1.1"
   inkscape:version="0.48.3.1 r9886"
   width="100%"
   height="100%"
   sodipodi:docname="f0fe_font_awesome.svg">
  <metadata
     id="metadata2999">
    <rdf:RDF>
      <cc:Work
         rdf:about="">
        <dc:format>image/svg+xml</dc:format>
        <dc:type
           rdf:resource="http://purl.org/dc/dcmitype/StillImage" />
      </cc:Work>
    </rdf:RDF>
  </metadata>
  <defs
     id="defs2997" />
  <sodipodi:namedview
     pagecolor="#ffffff"
     bordercolor="#666666"
     borderopacity="1"
     objecttolerance="10"
     gridtolerance="10"
     guidetolerance="10"
     inkscape:pageopacity="0"
     inkscape:pageshadow="2"
     inkscape:window-width="640"
     inkscape:window-height="480"
     id="namedview2995"
     showgrid="false"
     inkscape:zoom="0.13169643"
     inkscape:cx="896"
     inkscape:cy="896"
     inkscape:window-x="0"
     inkscape:window-y="25"
     inkscape:window-maximized="0"
     inkscape:current-layer="svg2989" />
  <g
     transform="matrix(1,0,0,-1,136.67797,1300.6102)"
     id="g2991">
    <path
       d="m 1280,576 v 128 q 0,26 -19,45 -19,19 -45,19 H 896 v 320 q 0,26 -19,45 -19,19 -45,19 H 704 q -26,0 -45,-19 -19,-19 -19,-45 V 768 H 320 q -26,0 -45,-19 -19,-19 -19,-45 V 576 q 0,-26 19,-45 19,-19 45,-19 H 640 V 192 q 0,-26 19,-45 19,-19 45,-19 h 128 q 26,0 45,19 19,19 19,45 v 320 h 320 q 26,0 45,19 19,19 19,45 z m 256,544 V 160 Q 1536,41 1451.5,-43.5 1367,-128 1248,-128 H 288 Q 169,-128 84.5,-43.5 0,41 0,160 v 960 Q 0,1239 84.5,1323.5 169,1408 288,1408 h 960 q 119,0 203.5,-84.5 Q 1536,1239 1536,1120 z"
       id="path2993"
       inkscape:connector-curvature="0"
       style="fill:currentColor" />
  </g>
</svg>
