<?xml version="1.0" encoding="UTF-8" standalone="no"?>
<svg
   xmlns:dc="http://purl.org/dc/elements/1.1/"
   xmlns:cc="http://creativecommons.org/ns#"
   xmlns:rdf="http://www.w3.org/1999/02/22-rdf-syntax-ns#"
   xmlns:svg="http://www.w3.org/2000/svg"
   xmlns="http://www.w3.org/2000/svg"
   xmlns:sodipodi="http://sodipodi.sourceforge.net/DTD/sodipodi-0.dtd"
   xmlns:inkscape="http://www.inkscape.org/namespaces/inkscape"
   viewBox="0 -256 1792 1792"
   id="svg3001"
   version="1.1"
   inkscape:version="0.48.4 r9939"
   width="100%"
   height="100%"
   sodipodi:docname="Magic_font_awesome.svg">
  <metadata
     id="metadata3011">
    <rdf:RDF>
      <cc:Work
         rdf:about="">
        <dc:format>image/svg+xml</dc:format>
        <dc:type
           rdf:resource="http://purl.org/dc/dcmitype/StillImage" />
      </cc:Work>
    </rdf:RDF>
  </metadata>
  <defs
     id="defs3009" />
  <sodipodi:namedview
     pagecolor="#ffffff"
     bordercolor="#666666"
     borderopacity="1"
     objecttolerance="10"
     gridtolerance="10"
     guidetolerance="10"
     inkscape:pageopacity="0"
     inkscape:pageshadow="2"
     inkscape:window-width="640"
     inkscape:window-height="480"
     id="namedview3007"
     showgrid="false"
     inkscape:zoom="0.13169643"
     inkscape:cx="896.00001"
     inkscape:cy="896.00001"
     inkscape:window-x="441"
     inkscape:window-y="149"
     inkscape:window-maximized="0"
     inkscape:current-layer="svg3001" />
  <g
     transform="matrix(1,0,0,-1,45.559322,1346.1695)"
     id="g3003">
    <path
       d="m 1190,955 293,293 -107,107 -293,-293 z m 447,293 q 0,-27 -18,-45 L 333,-83 q -18,-18 -45,-18 -27,0 -45,18 L 45,115 q -18,18 -18,45 0,27 18,45 l 1286,1286 q 18,18 45,18 27,0 45,-18 l 198,-198 q 18,-18 18,-45 z m -1351,190 98,-30 -98,-30 -30,-98 -30,98 -98,30 98,30 30,98 z m 350,-162 196,-60 -196,-60 -60,-196 -60,196 -196,60 196,60 60,196 z m 930,-478 98,-30 -98,-30 -30,-98 -30,98 -98,30 98,30 30,98 z m -640,640 98,-30 -98,-30 -30,-98 -30,98 -98,30 98,30 30,98 z"
       id="path3005"
       inkscape:connector-curvature="0"
       style="fill:currentColor" />
  </g>
</svg>
