<?xml version="1.0" encoding="UTF-8" standalone="no"?>
<svg
   xmlns:dc="http://purl.org/dc/elements/1.1/"
   xmlns:cc="http://creativecommons.org/ns#"
   xmlns:rdf="http://www.w3.org/1999/02/22-rdf-syntax-ns#"
   xmlns:svg="http://www.w3.org/2000/svg"
   xmlns="http://www.w3.org/2000/svg"
   xmlns:sodipodi="http://sodipodi.sourceforge.net/DTD/sodipodi-0.dtd"
   xmlns:inkscape="http://www.inkscape.org/namespaces/inkscape"
   viewBox="0 -256 1800 1800"
   id="svg2"
   version="1.1"
   inkscape:version="0.48.3.1 r9886"
   width="100%"
   height="100%"
   sodipodi:docname="reply_font_awesome.svg">
  <metadata
     id="metadata12">
    <rdf:RDF>
      <cc:Work
         rdf:about="">
        <dc:format>image/svg+xml</dc:format>
        <dc:type
           rdf:resource="http://purl.org/dc/dcmitype/StillImage" />
      </cc:Work>
    </rdf:RDF>
  </metadata>
  <defs
     id="defs10" />
  <sodipodi:namedview
     pagecolor="#ffffff"
     bordercolor="#666666"
     borderopacity="1"
     objecttolerance="10"
     gridtolerance="10"
     guidetolerance="10"
     inkscape:pageopacity="0"
     inkscape:pageshadow="2"
     inkscape:window-width="640"
     inkscape:window-height="480"
     id="namedview8"
     showgrid="false"
     inkscape:zoom="2.1071429"
     inkscape:cx="10.23788"
     inkscape:cy="1065.5199"
     inkscape:window-x="0"
     inkscape:window-y="25"
     inkscape:window-maximized="0"
     inkscape:current-layer="svg2" />
  <g
     transform="matrix(1,0,0,-1,2.6846088,1331.3898)"
     id="g4">
    <path
       d="m 1792,416 q 0,-166 -127,-451 -3,-7 -10.5,-24 -7.5,-17 -13.5,-30 -6,-13 -13,-22 -12,-17 -28,-17 -15,0 -23.5,10 -8.5,10 -8.5,25 0,9 2.5,26.5 2.5,17.5 2.5,23.5 5,68 5,123 0,101 -17.5,181 -17.5,80 -48.5,138.5 -31,58.5 -80,101 -49,42.5 -105.5,69.5 -56.5,27 -133,42.5 Q 1117,628 1039.5,634 962,640 864,640 H 640 V 384 q 0,-26 -19,-45 -19,-19 -45,-19 -26,0 -45,19 L 19,851 q -19,19 -19,45 0,26 19,45 l 512,512 q 19,19 45,19 26,0 45,-19 19,-19 19,-45 v -256 h 224 q 713,0 875,-403 53,-134 53,-333 z"
       id="path6"
       inkscape:connector-curvature="0"
       style="fill:currentColor" />
  </g>
</svg>
