<?xml version="1.0" encoding="UTF-8" standalone="no"?>
<!-- Created with Inkscape (http://www.inkscape.org/) -->

<svg
   xmlns:dc="http://purl.org/dc/elements/1.1/"
   xmlns:cc="http://creativecommons.org/ns#"
   xmlns:rdf="http://www.w3.org/1999/02/22-rdf-syntax-ns#"
   xmlns:svg="http://www.w3.org/2000/svg"
   xmlns="http://www.w3.org/2000/svg"
   xmlns:sodipodi="http://sodipodi.sourceforge.net/DTD/sodipodi-0.dtd"
   xmlns:inkscape="http://www.inkscape.org/namespaces/inkscape"
   width="52.931995"
   height="52.931995"
   id="svg2"
   version="1.1"
   inkscape:version="0.48.4 r9939"
   sodipodi:docname="users_font_awesome_invert.svg">
  <defs
     id="defs4" />
  <sodipodi:namedview
     id="base"
     pagecolor="#ffffff"
     bordercolor="#666666"
     borderopacity="1.0"
     inkscape:pageopacity="0.0"
     inkscape:pageshadow="2"
     inkscape:zoom="2.8284271"
     inkscape:cx="71.965626"
     inkscape:cy="21.426552"
     inkscape:document-units="px"
     inkscape:current-layer="text3968"
     showgrid="false"
     fit-margin-top="0"
     fit-margin-left="0"
     fit-margin-right="0"
     fit-margin-bottom="0"
     inkscape:window-width="1093"
     inkscape:window-height="777"
     inkscape:window-x="277"
     inkscape:window-y="1090"
     inkscape:window-maximized="0" />
  <metadata
     id="metadata7">
    <rdf:RDF>
      <cc:Work
         rdf:about="">
        <dc:format>image/svg+xml</dc:format>
        <dc:type
           rdf:resource="http://purl.org/dc/dcmitype/StillImage" />
        <dc:title></dc:title>
      </cc:Work>
    </rdf:RDF>
  </metadata>
  <g
     inkscape:label="Layer 1"
     inkscape:groupmode="layer"
     id="layer1"
     transform="translate(-180.36273,-342.83102)">
    <path
       style="fill:none;stroke:none"
       d="m 180.36273,342.83102 52.932,0 0,52.932 -52.932,0 z"
       id="rect2995" />
    <g
       transform="translate(50.575379,6.8786797)"
       style="font-size:48px;font-style:normal;font-variant:normal;font-weight:normal;font-stretch:normal;text-align:center;line-height:125%;letter-spacing:0px;word-spacing:0px;text-anchor:middle;fill:#000000;fill-opacity:1;stroke:none;font-family:FontAwesome;-inkscape-font-specification:FontAwesome"
       id="flowRoot2985">
      <g
         style="line-height:125%;fill:#000000;font-family:Sans"
         id="text3968">
        <path
           d="m 146.45342,361.13491 c -2.89287,0.0893 -5.25894,1.23216 -7.09822,3.42858 l -3.58928,0 c -1.46429,10e-6 -2.69643,-0.35713 -3.69643,-1.07143 -1,-0.73213 -1.5,-1.79463 -1.5,-3.1875 0,-6.30355 1.10714,-9.45533 3.32143,-9.45536 0.10714,3e-5 0.49106,0.18753 1.15178,0.5625 0.67857,0.37503 1.55357,0.75895 2.625,1.15179 1.07142,0.37502 2.13392,0.56252 3.1875,0.5625 1.19642,2e-5 2.38392,-0.20534 3.5625,-0.61608 -0.0893,0.66074 -0.13394,1.25003 -0.13393,1.76786 -1e-5,2.48217 0.7232,4.76788 2.16965,6.85714 m 28.6875,17.0625 c -5e-5,2.14286 -0.65183,3.83036 -1.95536,5.0625 -1.30361,1.25 -3.03575,1.875 -5.19643,1.875 l -23.41071,0 c -2.16073,0 -3.89287,-0.625 -5.19643,-1.875 -1.30358,-1.23214 -1.95537,-2.91964 -1.95536,-5.0625 -10e-6,-0.94642 0.0268,-1.86607 0.0804,-2.75892 0.0714,-0.91072 0.19642,-1.88393 0.375,-2.91965 0.19642,-1.05356 0.43749,-2.02678 0.72321,-2.91964 0.28571,-0.89285 0.66964,-1.75892 1.15179,-2.59821 0.48213,-0.85714 1.0357,-1.58035 1.66071,-2.16965 0.62499,-0.60713 1.38392,-1.08927 2.27679,-1.44643 0.9107,-0.35712 1.9107,-0.5357 3,-0.53571 0.17855,1e-5 0.56248,0.19644 1.15178,0.58929 0.58927,0.37501 1.24106,0.80358 1.95536,1.28571 0.71427,0.4643 1.66962,0.89287 2.86607,1.28571 1.19641,0.37502 2.40176,0.56252 3.61607,0.5625 1.21426,2e-5 2.41962,-0.18748 3.61608,-0.5625 1.19639,-0.39284 2.15175,-0.82141 2.86607,-1.28571 0.71425,-0.48213 1.36603,-0.9107 1.95535,-1.28571 0.58926,-0.39285 0.97318,-0.58928 1.15179,-0.58929 1.08925,1e-5 2.08032,0.17859 2.97321,0.53571 0.91068,0.35716 1.67854,0.8393 2.30358,1.44643 0.62495,0.5893 1.17853,1.31251 1.66071,2.16965 0.4821,0.83929 0.86603,1.70536 1.15179,2.59821 0.28567,0.89286 0.51781,1.86608 0.69642,2.91964 0.19639,1.03572 0.32139,2.00893 0.375,2.91965 0.0714,0.89285 0.1071,1.8125 0.10715,2.75892 m -29.4375,-39.05357 c 1.33927,1.33933 2.00891,2.9554 2.00893,4.84822 -2e-5,1.89289 -0.66966,3.50896 -2.00893,4.84821 -1.3393,1.33931 -2.95537,2.00896 -4.84822,2.00893 -1.89286,3e-5 -3.50893,-0.66962 -4.84821,-2.00893 -1.33929,-1.33925 -2.00893,-2.95532 -2.00893,-4.84821 0,-1.89282 0.66964,-3.50889 2.00893,-4.84822 1.33928,-1.33924 2.95535,-2.00889 4.84821,-2.00893 1.89285,4e-5 3.50892,0.66969 4.84822,2.00893 m 17.83928,7.875 c 2.01782,2.00003 3.02675,4.41967 3.02679,7.25893 -4e-5,2.83931 -1.00897,5.26788 -3.02679,7.28572 -2.00003,2.00001 -4.41967,3.00001 -7.25893,3 -2.8393,10e-6 -5.26787,-0.99999 -7.28571,-3 -2.00002,-2.01784 -3.00002,-4.44641 -3,-7.28572 -2e-5,-2.83926 0.99998,-5.2589 3,-7.25893 2.01784,-2.01782 4.44641,-3.02675 7.28571,-3.02678 2.83926,3e-5 5.2589,1.00896 7.25893,3.02678 m 18.45536,13.28572 c -5e-5,1.39287 -0.50005,2.45537 -1.5,3.1875 -1.00005,0.7143 -2.23219,1.07144 -3.69643,1.07143 l -3.58928,0 c -1.83933,-2.19642 -4.2054,-3.33927 -7.09822,-3.42858 1.44639,-2.08926 2.16961,-4.37497 2.16964,-6.85714 -3e-5,-0.51783 -0.0447,-1.10712 -0.13392,-1.76786 1.17853,0.41074 2.36603,0.6161 3.5625,0.61608 1.05352,2e-5 2.11602,-0.18748 3.1875,-0.5625 1.07138,-0.39284 1.93745,-0.77676 2.59821,-1.15179 0.67852,-0.37497 1.07138,-0.56247 1.17857,-0.5625 2.21424,3e-5 3.32138,3.15181 3.32143,9.45536 m -5.4375,-21.16072 c 1.33924,1.33933 2.00888,2.9554 2.00893,4.84822 -5e-5,1.89289 -0.66969,3.50896 -2.00893,4.84821 -1.33933,1.33931 -2.9554,2.00896 -4.84821,2.00893 -1.8929,3e-5 -3.50897,-0.66962 -4.84822,-2.00893 -1.33932,-1.33925 -2.00896,-2.95532 -2.00893,-4.84821 -3e-5,-1.89282 0.66961,-3.50889 2.00893,-4.84822 1.33925,-1.33924 2.95532,-2.00889 4.84822,-2.00893 1.89281,4e-5 3.50888,0.66969 4.84821,2.00893"
           style=""
           id="path4125" />
      </g>
    </g>
    <flowRoot
       xml:space="preserve"
       id="flowRoot3036"
       style="fill:black;stroke:none;stroke-opacity:1;stroke-width:1px;stroke-linejoin:miter;stroke-linecap:butt;fill-opacity:1;font-family:Sans;font-style:normal;font-weight:normal;font-size:48px;line-height:125%;letter-spacing:0px;word-spacing:0px"><flowRegion
         id="flowRegion3038"><rect
           id="rect3040"
           width="147.07822"
           height="122.32948"
           x="-39.244427"
           y="-36.870567" /></flowRegion><flowPara
         id="flowPara3042" /></flowRoot>  </g>
</svg>
