<?xml version="1.0" encoding="UTF-8" standalone="no"?>
<!-- Created with Inkscape (http://www.inkscape.org/) -->

<svg
   xmlns:dc="http://purl.org/dc/elements/1.1/"
   xmlns:cc="http://creativecommons.org/ns#"
   xmlns:rdf="http://www.w3.org/1999/02/22-rdf-syntax-ns#"
   xmlns:svg="http://www.w3.org/2000/svg"
   xmlns="http://www.w3.org/2000/svg"
   xmlns:sodipodi="http://sodipodi.sourceforge.net/DTD/sodipodi-0.dtd"
   xmlns:inkscape="http://www.inkscape.org/namespaces/inkscape"
   width="52.931995"
   height="52.931995"
   id="svg2"
   version="1.1"
   inkscape:version="0.48.4 r9939"
   sodipodi:docname="users_font_awesome.svg">
  <defs
     id="defs4" />
  <sodipodi:namedview
     id="base"
     pagecolor="#ffffff"
     bordercolor="#666666"
     borderopacity="1.0"
     inkscape:pageopacity="0.0"
     inkscape:pageshadow="2"
     inkscape:zoom="2.8284271"
     inkscape:cx="71.965626"
     inkscape:cy="21.426552"
     inkscape:document-units="px"
     inkscape:current-layer="layer1"
     showgrid="false"
     fit-margin-top="0"
     fit-margin-left="0"
     fit-margin-right="0"
     fit-margin-bottom="0"
     inkscape:window-width="1093"
     inkscape:window-height="777"
     inkscape:window-x="277"
     inkscape:window-y="1090"
     inkscape:window-maximized="0" />
  <metadata
     id="metadata7">
    <rdf:RDF>
      <cc:Work
         rdf:about="">
        <dc:format>image/svg+xml</dc:format>
        <dc:type
           rdf:resource="http://purl.org/dc/dcmitype/StillImage" />
        <dc:title></dc:title>
      </cc:Work>
    </rdf:RDF>
  </metadata>
  <g
     inkscape:label="Layer 1"
     inkscape:groupmode="layer"
     id="layer1"
     transform="translate(-180.36273,-342.83102)">
    <path
       style="fill:#000000;stroke:none"
       d="M 0 0 L 0 52.9375 L 52.9375 52.9375 L 52.9375 0 L 0 0 z M 11.0625 1.1875 C 12.95535 1.18754 14.56695 1.84826 15.90625 3.1875 C 17.24552 4.52683 17.93748 6.13843 17.9375 8.03125 C 17.93748 9.92414 17.24552 11.53575 15.90625 12.875 C 14.56695 14.21431 12.95535 14.90628 11.0625 14.90625 C 9.16964 14.90628 7.55803 14.21431 6.21875 12.875 C 4.87946 11.53575 4.21875 9.92414 4.21875 8.03125 C 4.21875 6.13843 4.87946 4.52683 6.21875 3.1875 C 7.55803 1.84826 9.16964 1.18754 11.0625 1.1875 z M 41.9375 1.1875 C 43.83031 1.18754 45.44192 1.84826 46.78125 3.1875 C 48.12049 4.52683 48.7812 6.13843 48.78125 8.03125 C 48.7812 9.92414 48.12049 11.53575 46.78125 12.875 C 45.44192 14.21431 43.83031 14.90628 41.9375 14.90625 C 40.0446 14.90628 38.40175 14.21431 37.0625 12.875 C 35.72318 11.53575 35.06247 9.92414 35.0625 8.03125 C 35.06247 6.13843 35.72318 4.52683 37.0625 3.1875 C 38.40175 1.84826 40.0446 1.18754 41.9375 1.1875 z M 26.5 8.03125 C 29.33926 8.03128 31.74997 9.04468 33.75 11.0625 C 35.76782 13.06253 36.78121 15.47324 36.78125 18.3125 C 36.78121 21.15181 35.76782 23.60716 33.75 25.625 C 31.74997 27.62501 29.33926 28.62501 26.5 28.625 C 23.6607 28.62501 21.23659 27.62501 19.21875 25.625 C 17.21873 23.60716 16.21873 21.15181 16.21875 18.3125 C 16.21873 15.47324 17.21873 13.06253 19.21875 11.0625 C 21.23659 9.04468 23.6607 8.03128 26.5 8.03125 z M 4.09375 14.90625 C 4.20089 14.90628 4.58928 15.09378 5.25 15.46875 C 5.92857 15.84378 6.80357 16.23216 7.875 16.625 C 8.94642 17.00002 10.00892 17.18752 11.0625 17.1875 C 12.25892 17.18752 13.44642 16.97324 14.625 16.5625 C 14.5357 17.22324 14.49999 17.79467 14.5 18.3125 C 14.49999 20.79467 15.2098 23.09824 16.65625 25.1875 C 13.76338 25.2768 11.40178 26.42858 9.5625 28.625 L 5.96875 28.625 C 4.50446 28.62501 3.28125 28.24555 2.28125 27.53125 C 1.28125 26.79912 0.78125 25.73662 0.78125 24.34375 C 0.78125 18.0402 1.87946 14.90628 4.09375 14.90625 z M 48.875 14.90625 C 51.08924 14.90628 52.2187 18.0402 52.21875 24.34375 C 52.2187 25.73662 51.7187 26.79912 50.71875 27.53125 C 49.7187 28.24555 48.46424 28.62501 47 28.625 L 43.4375 28.625 C 41.59817 26.42858 39.20532 25.27681 36.3125 25.1875 C 37.75889 23.09824 38.49997 20.79467 38.5 18.3125 C 38.49997 17.79467 38.46422 17.22324 38.375 16.5625 C 39.55353 16.97324 40.74103 17.18752 41.9375 17.1875 C 42.99102 17.18752 44.05352 17.00002 45.125 16.625 C 46.19638 16.23216 47.05799 15.84378 47.71875 15.46875 C 48.39727 15.09378 48.76781 14.90628 48.875 14.90625 z M 16.90625 26.90625 C 17.0848 26.90626 17.4732 27.10715 18.0625 27.5 C 18.65177 27.87501 19.2857 28.29912 20 28.78125 C 20.71427 29.24555 21.67855 29.66966 22.875 30.0625 C 24.07141 30.43752 25.28569 30.62502 26.5 30.625 C 27.71426 30.62502 28.92854 30.43752 30.125 30.0625 C 31.32139 29.66966 32.25443 29.24555 32.96875 28.78125 C 33.683 28.29912 34.34818 27.87501 34.9375 27.5 C 35.52676 27.10715 35.91514 26.90626 36.09375 26.90625 C 37.183 26.90626 38.16961 27.08038 39.0625 27.4375 C 39.97318 27.79466 40.74996 28.26787 41.375 28.875 C 41.99995 29.4643 42.54907 30.20536 43.03125 31.0625 C 43.51335 31.90179 43.90174 32.7634 44.1875 33.65625 C 44.47317 34.54911 44.69639 35.50894 44.875 36.5625 C 45.07139 37.59822 45.19639 38.58928 45.25 39.5 C 45.3214 40.39285 45.3437 41.30358 45.34375 42.25 C 45.3437 44.39286 44.70978 46.08036 43.40625 47.3125 C 42.10264 48.5625 40.34818 49.1875 38.1875 49.1875 L 14.78125 49.1875 C 12.62052 49.1875 10.89731 48.5625 9.59375 47.3125 C 8.29017 46.08036 7.62499 44.39286 7.625 42.25 C 7.62499 41.30358 7.66515 40.39285 7.71875 39.5 C 7.79015 38.58928 7.91517 37.59822 8.09375 36.5625 C 8.29017 35.50894 8.52678 34.54911 8.8125 33.65625 C 9.09821 32.7634 9.4866 31.90179 9.96875 31.0625 C 10.45088 30.20536 10.99999 29.4643 11.625 28.875 C 12.24999 28.26787 13.01338 27.79466 13.90625 27.4375 C 14.81695 27.08038 15.81695 26.90626 16.90625 26.90625 z "
       transform="translate(180.36273,342.83102)"
       id="rect2995" />
    <g
       transform="translate(50.575379,6.8786797)"
       style="font-size:48px;font-style:normal;font-variant:normal;font-weight:normal;font-stretch:normal;text-align:center;line-height:125%;letter-spacing:0px;word-spacing:0px;text-anchor:middle;fill:#000000;fill-opacity:1;stroke:none;font-family:FontAwesome;-inkscape-font-specification:FontAwesome"
       id="flowRoot2985">
      <g
         style="line-height:125%;fill:#000000;font-family:Sans"
         id="text3968" />
    </g>
    <flowRoot
       xml:space="preserve"
       id="flowRoot3036"
       style="fill:black;stroke:none;stroke-opacity:1;stroke-width:1px;stroke-linejoin:miter;stroke-linecap:butt;fill-opacity:1;font-family:Sans;font-style:normal;font-weight:normal;font-size:48px;line-height:125%;letter-spacing:0px;word-spacing:0px"><flowRegion
         id="flowRegion3038"><rect
           id="rect3040"
           width="147.07822"
           height="122.32948"
           x="-39.244427"
           y="-36.870567" /></flowRegion><flowPara
         id="flowPara3042" /></flowRoot>  </g>
</svg>
